<svg width="130" height="31" viewBox="0 0 130 31" fill="none" xmlns="http://www.w3.org/2000/svg">
<rect x="0.5" y="0.5" width="129" height="30" fill="white"/>
<rect x="0.5" y="0.5" width="129" height="30" stroke="#E0E0E0"/>
<path d="M17.016 20.096C16.176 20.096 15.416 19.912 14.736 19.544C14.064 19.168 13.536 18.656 13.152 18.008C12.768 17.352 12.576 16.616 12.576 15.8C12.576 14.984 12.768 14.252 13.152 13.604C13.536 12.948 14.068 12.436 14.748 12.068C15.428 11.692 16.188 11.504 17.028 11.504C17.684 11.504 18.284 11.616 18.828 11.84C19.372 12.056 19.836 12.38 20.22 12.812L19.44 13.568C18.808 12.904 18.02 12.572 17.076 12.572C16.452 12.572 15.888 12.712 15.384 12.992C14.88 13.272 14.484 13.66 14.196 14.156C13.916 14.644 13.776 15.192 13.776 15.8C13.776 16.408 13.916 16.96 14.196 17.456C14.484 17.944 14.88 18.328 15.384 18.608C15.888 18.888 16.452 19.028 17.076 19.028C18.012 19.028 18.8 18.692 19.44 18.02L20.22 18.776C19.836 19.208 19.368 19.536 18.816 19.76C18.272 19.984 17.672 20.096 17.016 20.096ZM25.1599 13.58C25.9679 13.58 26.6079 13.816 27.0799 14.288C27.5599 14.752 27.7999 15.436 27.7999 16.34V20H26.6479V16.472C26.6479 15.856 26.4999 15.392 26.2039 15.08C25.9079 14.768 25.4839 14.612 24.9319 14.612C24.3079 14.612 23.8159 14.796 23.4559 15.164C23.0959 15.524 22.9159 16.044 22.9159 16.724V20H21.7639V11.096H22.9159V14.54C23.1559 14.236 23.4679 14 23.8519 13.832C24.2439 13.664 24.6799 13.58 25.1599 13.58ZM35.715 16.856C35.715 16.944 35.707 17.06 35.691 17.204H30.531C30.603 17.764 30.847 18.216 31.263 18.56C31.687 18.896 32.211 19.064 32.835 19.064C33.595 19.064 34.207 18.808 34.671 18.296L35.307 19.04C35.019 19.376 34.659 19.632 34.227 19.808C33.803 19.984 33.327 20.072 32.799 20.072C32.127 20.072 31.531 19.936 31.011 19.664C30.491 19.384 30.087 18.996 29.799 18.5C29.519 18.004 29.379 17.444 29.379 16.82C29.379 16.204 29.515 15.648 29.787 15.152C30.067 14.656 30.447 14.272 30.927 14C31.415 13.72 31.963 13.58 32.571 13.58C33.179 13.58 33.719 13.72 34.191 14C34.671 14.272 35.043 14.656 35.307 15.152C35.579 15.648 35.715 16.216 35.715 16.856ZM32.571 14.552C32.019 14.552 31.555 14.72 31.179 15.056C30.811 15.392 30.595 15.832 30.531 16.376H34.611C34.547 15.84 34.327 15.404 33.951 15.068C33.583 14.724 33.123 14.552 32.571 14.552ZM39.4549 13.58C40.3349 13.58 41.0069 13.796 41.4709 14.228C41.9429 14.66 42.1789 15.304 42.1789 16.16V20H41.0869V19.16C40.8949 19.456 40.6189 19.684 40.2589 19.844C39.9069 19.996 39.4869 20.072 38.9989 20.072C38.2869 20.072 37.7149 19.9 37.2829 19.556C36.8589 19.212 36.6469 18.76 36.6469 18.2C36.6469 17.64 36.8509 17.192 37.2589 16.856C37.6669 16.512 38.3149 16.34 39.2029 16.34H41.0269V16.112C41.0269 15.616 40.8829 15.236 40.5949 14.972C40.3069 14.708 39.8829 14.576 39.3229 14.576C38.9469 14.576 38.5789 14.64 38.2189 14.768C37.8589 14.888 37.5549 15.052 37.3069 15.26L36.8269 14.396C37.1549 14.132 37.5469 13.932 38.0029 13.796C38.4589 13.652 38.9429 13.58 39.4549 13.58ZM39.1909 19.184C39.6309 19.184 40.0109 19.088 40.3309 18.896C40.6509 18.696 40.8829 18.416 41.0269 18.056V17.168H39.2509C38.2749 17.168 37.7869 17.496 37.7869 18.152C37.7869 18.472 37.9109 18.724 38.1589 18.908C38.4069 19.092 38.7509 19.184 39.1909 19.184ZM47.6828 13.58C48.2988 13.58 48.8508 13.716 49.3388 13.988C49.8268 14.26 50.2068 14.64 50.4788 15.128C50.7588 15.616 50.8988 16.18 50.8988 16.82C50.8988 17.46 50.7588 18.028 50.4788 18.524C50.2068 19.012 49.8268 19.392 49.3388 19.664C48.8508 19.936 48.2988 20.072 47.6828 20.072C47.2268 20.072 46.8068 19.984 46.4228 19.808C46.0468 19.632 45.7268 19.376 45.4628 19.04V22.328H44.3108V13.64H45.4148V14.648C45.6708 14.296 45.9948 14.032 46.3867 13.856C46.7788 13.672 47.2108 13.58 47.6828 13.58ZM47.5868 19.064C47.9948 19.064 48.3588 18.972 48.6788 18.788C49.0068 18.596 49.2628 18.332 49.4468 17.996C49.6388 17.652 49.7348 17.26 49.7348 16.82C49.7348 16.38 49.6388 15.992 49.4468 15.656C49.2628 15.312 49.0068 15.048 48.6788 14.864C48.3588 14.68 47.9948 14.588 47.5868 14.588C47.1868 14.588 46.8228 14.684 46.4948 14.876C46.1748 15.06 45.9188 15.32 45.7268 15.656C45.5428 15.992 45.4508 16.38 45.4508 16.82C45.4508 17.26 45.5428 17.652 45.7268 17.996C45.9108 18.332 46.1668 18.596 46.4948 18.788C46.8228 18.972 47.1868 19.064 47.5868 19.064ZM58.2384 16.856C58.2384 16.944 58.2304 17.06 58.2144 17.204H53.0544C53.1264 17.764 53.3704 18.216 53.7864 18.56C54.2104 18.896 54.7344 19.064 55.3584 19.064C56.1184 19.064 56.7304 18.808 57.1944 18.296L57.8304 19.04C57.5424 19.376 57.1824 19.632 56.7504 19.808C56.3264 19.984 55.8504 20.072 55.3224 20.072C54.6504 20.072 54.0544 19.936 53.5344 19.664C53.0144 19.384 52.6104 18.996 52.3224 18.5C52.0424 18.004 51.9024 17.444 51.9024 16.82C51.9024 16.204 52.0384 15.648 52.3104 15.152C52.5904 14.656 52.9704 14.272 53.4504 14C53.9384 13.72 54.4864 13.58 55.0944 13.58C55.7024 13.58 56.2424 13.72 56.7144 14C57.1944 14.272 57.5664 14.656 57.8304 15.152C58.1024 15.648 58.2384 16.216 58.2384 16.856ZM55.0944 14.552C54.5424 14.552 54.0784 14.72 53.7024 15.056C53.3344 15.392 53.1184 15.832 53.0544 16.376H57.1344C57.0704 15.84 56.8504 15.404 56.4744 15.068C56.1064 14.724 55.6464 14.552 55.0944 14.552ZM60.9421 14.708C61.1421 14.34 61.4381 14.06 61.8301 13.868C62.2221 13.676 62.6981 13.58 63.2581 13.58V14.696C63.1941 14.688 63.1061 14.684 62.9941 14.684C62.3701 14.684 61.8781 14.872 61.5181 15.248C61.1661 15.616 60.9901 16.144 60.9901 16.832V20H59.8381V13.64H60.9421V14.708ZM69.3506 12.644V15.572H73.5626V16.604H69.3506V20H68.1506V11.6H74.0786V12.644H69.3506ZM75.4826 13.64H76.6346V20H75.4826V13.64ZM76.0586 12.416C75.8346 12.416 75.6466 12.344 75.4946 12.2C75.3506 12.056 75.2786 11.88 75.2786 11.672C75.2786 11.464 75.3506 11.288 75.4946 11.144C75.6466 10.992 75.8346 10.916 76.0586 10.916C76.2826 10.916 76.4666 10.988 76.6106 11.132C76.7626 11.268 76.8386 11.44 76.8386 11.648C76.8386 11.864 76.7626 12.048 76.6106 12.2C76.4666 12.344 76.2826 12.416 76.0586 12.416ZM79.9382 14.708C80.1382 14.34 80.4342 14.06 80.8262 13.868C81.2182 13.676 81.6942 13.58 82.2542 13.58V14.696C82.1902 14.688 82.1022 14.684 81.9902 14.684C81.3662 14.684 80.8742 14.872 80.5142 15.248C80.1622 15.616 79.9862 16.144 79.9862 16.832V20H78.8342V13.64H79.9382V14.708ZM85.5449 20.072C85.0249 20.072 84.5249 20.004 84.0449 19.868C83.5649 19.724 83.1889 19.544 82.9169 19.328L83.3969 18.416C83.6769 18.616 84.0169 18.776 84.4169 18.896C84.8169 19.016 85.2209 19.076 85.6289 19.076C86.6369 19.076 87.1409 18.788 87.1409 18.212C87.1409 18.02 87.0729 17.868 86.9369 17.756C86.8009 17.644 86.6289 17.564 86.4209 17.516C86.2209 17.46 85.9329 17.4 85.5569 17.336C85.0449 17.256 84.6249 17.164 84.2969 17.06C83.9769 16.956 83.7009 16.78 83.4689 16.532C83.2369 16.284 83.1209 15.936 83.1209 15.488C83.1209 14.912 83.3609 14.452 83.8409 14.108C84.3209 13.756 84.9649 13.58 85.7729 13.58C86.1969 13.58 86.6209 13.632 87.0449 13.736C87.4689 13.84 87.8169 13.98 88.0889 14.156L87.5969 15.068C87.0769 14.732 86.4649 14.564 85.7609 14.564C85.2729 14.564 84.9009 14.644 84.6449 14.804C84.3889 14.964 84.2609 15.176 84.2609 15.44C84.2609 15.648 84.3329 15.812 84.4769 15.932C84.6209 16.052 84.7969 16.14 85.0049 16.196C85.2209 16.252 85.5209 16.316 85.9049 16.388C86.4169 16.476 86.8289 16.572 87.1409 16.676C87.4609 16.772 87.7329 16.94 87.9569 17.18C88.1809 17.42 88.2929 17.756 88.2929 18.188C88.2929 18.764 88.0449 19.224 87.5489 19.568C87.0609 19.904 86.3929 20.072 85.5449 20.072ZM93.3086 19.628C93.1406 19.772 92.9326 19.884 92.6846 19.964C92.4366 20.036 92.1806 20.072 91.9166 20.072C91.2766 20.072 90.7806 19.9 90.4286 19.556C90.0766 19.212 89.9006 18.72 89.9006 18.08V14.588H88.8206V13.64H89.9006V12.248H91.0526V13.64H92.8766V14.588H91.0526V18.032C91.0526 18.376 91.1366 18.64 91.3046 18.824C91.4806 19.008 91.7286 19.1 92.0486 19.1C92.4006 19.1 92.7006 19 92.9486 18.8L93.3086 19.628Z" fill="black"/>
<path d="M109 14L112 17L115 14" stroke="black" stroke-linecap="round" stroke-linejoin="round"/>
</svg>
