<svg width="97" height="32" viewBox="0 0 97 32" fill="none" xmlns="http://www.w3.org/2000/svg">
<g opacity="0.5">
<path d="M2.51988 24.5V7.7H4.48788L15.5999 21.5H14.5679V7.7H16.9679V24.5H14.9999L3.88788 10.7H4.91988V24.5H2.51988ZM27.3244 24.644C25.9644 24.644 24.7644 24.364 23.7244 23.804C22.7004 23.244 21.9004 22.476 21.3244 21.5C20.7644 20.524 20.4844 19.404 20.4844 18.14C20.4844 16.876 20.7564 15.756 21.3004 14.78C21.8604 13.804 22.6204 13.044 23.5804 12.5C24.5564 11.94 25.6524 11.66 26.8684 11.66C28.1004 11.66 29.1884 11.932 30.1324 12.476C31.0764 13.02 31.8124 13.788 32.3404 14.78C32.8844 15.756 33.1564 16.9 33.1564 18.212C33.1564 18.308 33.1484 18.42 33.1324 18.548C33.1324 18.676 33.1244 18.796 33.1084 18.908H22.2844V17.252H31.9084L30.9724 17.828C30.9884 17.012 30.8204 16.284 30.4684 15.644C30.1164 15.004 29.6284 14.508 29.0044 14.156C28.3964 13.788 27.6844 13.604 26.8684 13.604C26.0684 13.604 25.3564 13.788 24.7324 14.156C24.1084 14.508 23.6204 15.012 23.2684 15.668C22.9164 16.308 22.7404 17.044 22.7404 17.876V18.26C22.7404 19.108 22.9324 19.868 23.3164 20.54C23.7164 21.196 24.2684 21.708 24.9724 22.076C25.6764 22.444 26.4844 22.628 27.3964 22.628C28.1484 22.628 28.8284 22.5 29.4364 22.244C30.0604 21.988 30.6044 21.604 31.0684 21.092L32.3404 22.58C31.7644 23.252 31.0444 23.764 30.1804 24.116C29.3324 24.468 28.3804 24.644 27.3244 24.644ZM34.1562 24.5L39.6282 17.396L39.6042 18.572L34.3962 11.78H36.9642L40.9482 17.012H39.9642L43.9482 11.78H46.4682L41.1882 18.62L41.2122 17.396L46.7322 24.5H44.1162L39.9162 18.932L40.8522 19.076L36.7242 24.5H34.1562ZM53.6144 24.644C52.3344 24.644 51.3424 24.3 50.6384 23.612C49.9344 22.924 49.5824 21.94 49.5824 20.66V8.996H51.8864V20.564C51.8864 21.252 52.0544 21.78 52.3904 22.148C52.7424 22.516 53.2384 22.7 53.8784 22.7C54.5984 22.7 55.1984 22.5 55.6784 22.1L56.3984 23.756C56.0464 24.06 55.6224 24.284 55.1264 24.428C54.6464 24.572 54.1424 24.644 53.6144 24.644ZM47.4224 13.676V11.78H55.5344V13.676H47.4224Z" fill="#F2F2F2"/>
<g clip-path="url(#clip0_0_75)">
<path d="M71.6666 17.3334H87.4799L82.6399 23.1467C82.4136 23.419 82.3047 23.77 82.3372 24.1226C82.3697 24.4752 82.541 24.8004 82.8133 25.0267C83.0856 25.253 83.4366 25.3619 83.7892 25.3294C84.1417 25.2969 84.4669 25.1256 84.6933 24.8534L91.3599 16.8534C91.4048 16.7897 91.4449 16.7229 91.4799 16.6534C91.4799 16.5867 91.4799 16.5467 91.5733 16.48C91.6337 16.3271 91.6653 16.1644 91.6666 16C91.6653 15.8356 91.6337 15.6729 91.5733 15.52C91.5733 15.4534 91.5733 15.4134 91.4799 15.3467C91.4449 15.2772 91.4048 15.2103 91.3599 15.1467L84.6933 7.14669C84.5679 6.99618 84.4109 6.87514 84.2335 6.79218C84.056 6.70921 83.8625 6.66637 83.6666 6.66669C83.3551 6.66608 83.0531 6.77458 82.8133 6.97335C82.6783 7.08529 82.5666 7.22275 82.4848 7.37788C82.403 7.53301 82.3526 7.70275 82.3365 7.87739C82.3204 8.05203 82.339 8.22812 82.391 8.39559C82.4431 8.56306 82.5277 8.71862 82.6399 8.85335L87.4799 14.6667H71.6666C71.313 14.6667 70.9738 14.8072 70.7238 15.0572C70.4737 15.3073 70.3333 15.6464 70.3333 16C70.3333 16.3536 70.4737 16.6928 70.7238 16.9428C70.9738 17.1929 71.313 17.3334 71.6666 17.3334Z" fill="#F2F2F2"/>
</g>
</g>
<defs>
<clipPath id="clip0_0_75">
<rect width="32" height="32" fill="white" transform="matrix(-1 0 0 -1 96.9999 32)"/>
</clipPath>
</defs>
</svg>
