<svg width="145" height="32" viewBox="0 0 145 32" fill="none" xmlns="http://www.w3.org/2000/svg">
<g opacity="0.5">
<path d="M25.3331 14.6666H9.51982L14.3598 8.85331C14.5861 8.58103 14.695 8.22998 14.6625 7.87742C14.63 7.52485 14.4588 7.19963 14.1865 6.97331C13.9142 6.747 13.5632 6.63811 13.2106 6.67062C12.858 6.70313 12.5328 6.87436 12.3065 7.14665L5.63982 15.1466C5.59497 15.2103 5.55486 15.2771 5.51982 15.3466C5.51982 15.4133 5.51982 15.4533 5.42649 15.52C5.36605 15.6729 5.33441 15.8356 5.33315 16C5.33441 16.1644 5.36605 16.3271 5.42649 16.48C5.42649 16.5466 5.42649 16.5866 5.51982 16.6533C5.55486 16.7228 5.59497 16.7897 5.63982 16.8533L12.3065 24.8533C12.4318 25.0038 12.5888 25.1249 12.7663 25.2078C12.9437 25.2908 13.1373 25.3336 13.3332 25.3333C13.6447 25.3339 13.9466 25.2254 14.1865 25.0266C14.3215 24.9147 14.4331 24.7772 14.5149 24.6221C14.5967 24.467 14.6471 24.2972 14.6632 24.1226C14.6793 23.948 14.6608 23.7719 14.6087 23.6044C14.5567 23.4369 14.4721 23.2814 14.3598 23.1466L9.51982 17.3333H25.3331C25.6868 17.3333 26.0259 17.1928 26.276 16.9428C26.526 16.6927 26.6665 16.3536 26.6665 16C26.6665 15.6464 26.526 15.3072 26.276 15.0572C26.0259 14.8071 25.6868 14.6666 25.3331 14.6666Z" fill="#333333"/>
<path d="M42.5199 24.5V7.7H49.0719C50.5439 7.7 51.7999 7.932 52.8399 8.396C53.8799 8.86 54.6799 9.532 55.2399 10.412C55.7999 11.292 56.0799 12.34 56.0799 13.556C56.0799 14.772 55.7999 15.82 55.2399 16.7C54.6799 17.564 53.8799 18.236 52.8399 18.716C51.7999 19.18 50.5439 19.412 49.0719 19.412H43.8399L44.9199 18.284V24.5H42.5199ZM44.9199 18.524L43.8399 17.324H48.9999C50.5359 17.324 51.6959 16.996 52.4799 16.34C53.2799 15.684 53.6799 14.756 53.6799 13.556C53.6799 12.356 53.2799 11.428 52.4799 10.772C51.6959 10.116 50.5359 9.788 48.9999 9.788H43.8399L44.9199 8.588V18.524ZM59.0354 24.5V11.78H61.2434V15.236L61.0274 14.372C61.3794 13.492 61.9714 12.82 62.8034 12.356C63.6354 11.892 64.6594 11.66 65.8754 11.66V13.892C65.7794 13.876 65.6834 13.868 65.5874 13.868C65.5074 13.868 65.4274 13.868 65.3474 13.868C64.1154 13.868 63.1394 14.236 62.4194 14.972C61.6994 15.708 61.3394 16.772 61.3394 18.164V24.5H59.0354ZM74.2619 24.644C72.9019 24.644 71.7019 24.364 70.6619 23.804C69.6379 23.244 68.8379 22.476 68.2619 21.5C67.7019 20.524 67.4219 19.404 67.4219 18.14C67.4219 16.876 67.6939 15.756 68.2379 14.78C68.7979 13.804 69.5579 13.044 70.5179 12.5C71.4939 11.94 72.5899 11.66 73.8059 11.66C75.0379 11.66 76.1259 11.932 77.0699 12.476C78.0139 13.02 78.7499 13.788 79.2779 14.78C79.8219 15.756 80.0939 16.9 80.0939 18.212C80.0939 18.308 80.0859 18.42 80.0699 18.548C80.0699 18.676 80.0619 18.796 80.0459 18.908H69.2219V17.252H78.8459L77.9099 17.828C77.9259 17.012 77.7579 16.284 77.4059 15.644C77.0539 15.004 76.5659 14.508 75.9419 14.156C75.3339 13.788 74.6219 13.604 73.8059 13.604C73.0059 13.604 72.2939 13.788 71.6699 14.156C71.0459 14.508 70.5579 15.012 70.2059 15.668C69.8539 16.308 69.6779 17.044 69.6779 17.876V18.26C69.6779 19.108 69.8699 19.868 70.2539 20.54C70.6539 21.196 71.2059 21.708 71.9099 22.076C72.6139 22.444 73.4219 22.628 74.3339 22.628C75.0859 22.628 75.7659 22.5 76.3739 22.244C76.9979 21.988 77.5419 21.604 78.0059 21.092L79.2779 22.58C78.7019 23.252 77.9819 23.764 77.1179 24.116C76.2699 24.468 75.3179 24.644 74.2619 24.644ZM86.3949 24.5L80.8269 11.78H83.2269L88.1709 23.3H87.0189L92.0589 11.78H94.3149L88.7469 24.5H86.3949ZM96.4651 24.5V11.78H98.7691V24.5H96.4651ZM97.6171 9.332C97.1691 9.332 96.7931 9.188 96.4891 8.9C96.2011 8.612 96.0571 8.26 96.0571 7.844C96.0571 7.412 96.2011 7.052 96.4891 6.764C96.7931 6.476 97.1691 6.332 97.6171 6.332C98.0651 6.332 98.4331 6.476 98.7211 6.764C99.0251 7.036 99.1771 7.38 99.1771 7.796C99.1771 8.228 99.0331 8.596 98.7451 8.9C98.4571 9.188 98.0811 9.332 97.6171 9.332ZM108.616 24.644C107.336 24.644 106.2 24.364 105.208 23.804C104.216 23.244 103.432 22.476 102.856 21.5C102.28 20.508 101.992 19.388 101.992 18.14C101.992 16.876 102.28 15.756 102.856 14.78C103.432 13.804 104.216 13.044 105.208 12.5C106.2 11.94 107.336 11.66 108.616 11.66C109.88 11.66 111.008 11.94 112 12.5C113.008 13.044 113.792 13.804 114.352 14.78C114.928 15.74 115.216 16.86 115.216 18.14C115.216 19.404 114.928 20.524 114.352 21.5C113.792 22.476 113.008 23.244 112 23.804C111.008 24.364 109.88 24.644 108.616 24.644ZM108.616 22.628C109.432 22.628 110.16 22.444 110.8 22.076C111.456 21.708 111.968 21.188 112.336 20.516C112.704 19.828 112.888 19.036 112.888 18.14C112.888 17.228 112.704 16.444 112.336 15.788C111.968 15.116 111.456 14.596 110.8 14.228C110.16 13.86 109.432 13.676 108.616 13.676C107.8 13.676 107.072 13.86 106.432 14.228C105.792 14.596 105.28 15.116 104.896 15.788C104.512 16.444 104.32 17.228 104.32 18.14C104.32 19.036 104.512 19.828 104.896 20.516C105.28 21.188 105.792 21.708 106.432 22.076C107.072 22.444 107.8 22.628 108.616 22.628ZM123.755 24.644C122.667 24.644 121.707 24.444 120.875 24.044C120.059 23.644 119.419 23.036 118.955 22.22C118.507 21.388 118.283 20.348 118.283 19.1V11.78H120.587V18.836C120.587 20.084 120.883 21.02 121.475 21.644C122.083 22.268 122.931 22.58 124.019 22.58C124.819 22.58 125.515 22.42 126.107 22.1C126.699 21.764 127.155 21.284 127.475 20.66C127.795 20.02 127.955 19.252 127.955 18.356V11.78H130.259V24.5H128.075V21.068L128.435 21.98C128.019 22.828 127.395 23.484 126.563 23.948C125.731 24.412 124.795 24.644 123.755 24.644ZM138.293 24.644C137.237 24.644 136.229 24.5 135.269 24.212C134.325 23.924 133.581 23.572 133.037 23.156L133.997 21.332C134.541 21.7 135.213 22.012 136.013 22.268C136.813 22.524 137.629 22.652 138.461 22.652C139.533 22.652 140.301 22.5 140.765 22.196C141.245 21.892 141.485 21.468 141.485 20.924C141.485 20.524 141.341 20.212 141.053 19.988C140.765 19.764 140.381 19.596 139.901 19.484C139.437 19.372 138.917 19.276 138.341 19.196C137.765 19.1 137.189 18.988 136.613 18.86C136.037 18.716 135.509 18.524 135.029 18.284C134.549 18.028 134.165 17.684 133.877 17.252C133.589 16.804 133.445 16.212 133.445 15.476C133.445 14.708 133.661 14.036 134.093 13.46C134.525 12.884 135.133 12.444 135.917 12.14C136.717 11.82 137.661 11.66 138.749 11.66C139.581 11.66 140.421 11.764 141.269 11.972C142.133 12.164 142.837 12.444 143.381 12.812L142.397 14.636C141.821 14.252 141.221 13.988 140.597 13.844C139.973 13.7 139.349 13.628 138.725 13.628C137.717 13.628 136.965 13.796 136.469 14.132C135.973 14.452 135.725 14.868 135.725 15.38C135.725 15.812 135.869 16.148 136.157 16.388C136.461 16.612 136.845 16.788 137.309 16.916C137.789 17.044 138.317 17.156 138.893 17.252C139.469 17.332 140.045 17.444 140.621 17.588C141.197 17.716 141.717 17.9 142.181 18.14C142.661 18.38 143.045 18.716 143.333 19.148C143.637 19.58 143.789 20.156 143.789 20.876C143.789 21.644 143.565 22.308 143.117 22.868C142.669 23.428 142.037 23.868 141.221 24.188C140.405 24.492 139.429 24.644 138.293 24.644Z" fill="#333333"/>
</g>
</svg>
